<svg width="84" height="84" viewBox="0 0 84 84" fill="none" xmlns="http://www.w3.org/2000/svg">
<path d="M5.32396 0C1.91742 0.142102 -0.0537272 1.99241 0.00111487 5.31267L3.47585 10.7125C4.25454 10.4997 5.12111 10.0392 5.98031 9.42573L13.4462 19.9404C10.4549 23.5947 7.95181 27.7367 5.93882 32.3674L10.6057 37.0256C12.5875 32.8853 14.9357 29.1616 17.6223 25.8216L54.6794 78.0089L84 83.8356L78.162 54.5718L25.8599 17.5771C29.359 14.7512 33.2147 12.3299 37.3999 10.2829L32.7325 5.62512C27.9504 7.69577 23.6902 10.2875 19.9475 13.3955L9.44415 5.96599C10.0493 5.11987 10.5097 4.25814 10.7347 3.46746L5.32396 0ZM75.782 15.2524L70.8553 37.1764L66.4405 23.0377L63.2581 35.4351L58.5364 26.7265L58.4338 36.8698L81.0181 52.9553L83.6871 68.2211L83.4818 35.4351L77.4251 42.4021L75.782 15.2524ZM22.8822 20.1611L61.9438 54.6107L66.4516 66.321L54.7186 61.822L20.2034 22.8382C21.0664 21.9123 21.9606 21.0207 22.8822 20.1611ZM28.5606 54.5942L33.4882 58.5905L27.1233 59.3076L37.2867 62.6886L18.7061 63.4061L38.9291 68.2218L21.1702 71.5001L43.5492 76.0081L31.7434 83.6926L68.3916 84L53.0961 81.336L34.7205 54.9023L28.5619 54.5949L28.5606 54.5942Z" fill="#F8F5E7"/>
</svg>
