<svg width="104" height="104" viewBox="0 0 104 104" fill="none" xmlns="http://www.w3.org/2000/svg">
<path d="M34.2875 6.68079L27.6656 13.2884L31.9922 17.5886L38.5937 10.985L34.2875 6.68079ZM41.1734 13.5789L39.1625 15.5919L64.1469 40.5844L66.1578 38.5734L41.1734 13.5789ZM73.5515 17.2474C72.8 17.2474 72.0484 17.2677 71.3375 17.3083C64.8578 17.6699 59.8203 19.697 55.4328 22.6688L68.7375 35.9938C69.4484 37.4766 79.3 55.5344 82.0422 61.0391C80.0719 59.7391 56.9765 47.7547 56.9765 47.7547L53.8687 44.6672V73.1656C58.7234 70.2 64.0453 67.5391 70.85 66.8281C78.4672 66.0156 87.8109 67.7016 100.141 73.5516V24.1109C89.639 19.4411 81.189 17.4302 74.3031 17.2677C74.039 17.2677 73.7953 17.2453 73.5515 17.2474ZM26.6703 17.4566C20.3937 18.0639 12.8862 20.1094 3.86951 24.1109V73.5516C16.2195 67.7016 25.5531 66.0156 33.1703 66.8281C39.8734 67.8844 44.9719 70.0375 50.1515 73.1656V40.95C42.3109 33.1297 34.4906 25.2891 26.6703 17.4566ZM36.5828 18.1777L34.5719 20.1866L59.5562 45.175L61.5672 43.1641L36.5828 18.1777ZM68.25 41.6609L62.664 47.2469L73.8562 52.8531L68.25 41.6609ZM29.2094 70.4235C22.7094 70.4844 14.6148 72.4141 3.86951 77.736V86.3688C16.2195 80.5188 25.5531 78.8328 33.1703 79.6453C36.9484 80.0516 40.2594 81.0469 43.2859 82.3469C42.3312 83.586 41.3969 85.0485 40.4625 86.7547H64.2687C63.05 85.0891 61.8719 83.6266 60.6734 82.3672C63.7203 81.0469 67.0515 80.0516 70.85 79.6453C78.4672 78.8328 87.8109 80.5188 100.141 86.3688V77.736C89.3547 72.3938 81.2297 70.4438 74.7094 70.4235H74.0797C73.1047 70.4438 72.1703 70.5047 71.2562 70.6063C64.35 71.3375 59.15 74.2625 53.8687 77.5938C52.7109 77.4313 51.2281 77.2281 50.1515 77.411C44.6265 74.1203 38.3297 71.236 32.7844 70.6063C31.6469 70.4844 30.4484 70.4235 29.2094 70.4235Z" fill="#F8F5E7"/>
</svg>
